<svg xmlns="http://www.w3.org/2000/svg" viewBox="0 0 200 200" width="200" height="200">
  <circle cx="100" cy="100" r="90" fill="none" stroke="#7B5EA7" stroke-width="2" stroke-dasharray="5 3"/>
  <circle cx="100" cy="100" r="83" fill="none" stroke="#7B5EA7" stroke-width="0.75" opacity="0.4"/>
  <circle cx="100" cy="100" r="76" fill="none" stroke="#7B5EA7" stroke-width="0.5" opacity="0.2"/>
  <defs>
    <path id="ep" d="M100,100 m-78,0 a78,78 0 1,1 156,0 a78,78 0 1,1 -156,0"/>
  </defs>
  <text font-family="Courier New,monospace" font-size="9" fill="#7B5EA7" letter-spacing="2.5">
    <textPath href="#ep">EARLY ADOPTER • RARE • LIMIT 100 •  </textPath>
  </text>
  <!-- Diamond shape -->
  <polygon points="100,58 128,100 100,142 72,100" fill="none" stroke="#7B5EA7" stroke-width="1.5" opacity="0.8"/>
  <polygon points="100,66 120,100 100,134 80,100" fill="none" stroke="#7B5EA7" stroke-width="0.75" opacity="0.4"/>
  <!-- Corner nodes on diamond -->
  <circle cx="100" cy="58"  r="2.5" fill="#7B5EA7" opacity="0.8"/>
  <circle cx="128" cy="100" r="2.5" fill="#7B5EA7" opacity="0.8"/>
  <circle cx="100" cy="142" r="2.5" fill="#7B5EA7" opacity="0.8"/>
  <circle cx="72"  cy="100" r="2.5" fill="#7B5EA7" opacity="0.8"/>
  <text x="100" y="108" font-family="Courier New,monospace" font-size="26" font-weight="bold" fill="#7B5EA7" text-anchor="middle">EA</text>
  <text x="100" y="122" font-family="Courier New,monospace" font-size="6" fill="#7B5EA7" text-anchor="middle" letter-spacing="1" opacity="0.5">FIRST 100</text>
</svg>
